<svg xmlns="http://www.w3.org/2000/svg" viewBox="0 0 24 24" fill="none">
  <defs>
    <linearGradient id="favicon-bg-grad" x1="0%" y1="0%" x2="100%" y2="100%">
      <stop offset="0%" stopColor="#a855f7" />
      <stop offset="100%" stopColor="#4f46e5" />
    </linearGradient>
  </defs>
  <rect width="24" height="24" rx="6" fill="url(#favicon-bg-grad)" />
  
  {/* Left Page */}
  <path d="M12 16.5C10.5 15.3 7.5 15.3 4.5 16.5V6.5C7.5 5.3 10.5 5.3 12 6.5" stroke="#ffffff" stroke-width="1.8" stroke-linecap="round" stroke-linejoin="round" />
  
  {/* Right Page */}
  <path d="M12 16.5C13.5 15.3 16.5 15.3 19.5 16.5V6.5C16.5 5.3 13.5 5.3 12 6.5" stroke="#ffffff" stroke-width="1.8" stroke-linecap="round" stroke-linejoin="round" />
  
  {/* Central Microphone */}
  <g stroke="#ffffff" stroke-width="1.2" stroke-linecap="round" stroke-linejoin="round">
    <rect x="10.8" y="7" width="2.4" height="4" rx="1.2" fill="#ffffff" stroke="none" />
    <path d="M9.8 9v0.4a2.2 2.2 0 0 0 4.4 0V9" fill="none" />
    <line x1="12" y1="11.4" x2="12" y2="13.5" />
    <line x1="10.5" y1="13.5" x2="13.5" y2="13.5" />
  </g>
</svg>